<svg width="71" height="70" viewBox="0 0 71 70" fill="none" xmlns="http://www.w3.org/2000/svg">
<rect opacity="0.15" x="0.667969" width="69.735" height="69.735" rx="34.8675" fill="#42B846"/>
<path fill-rule="evenodd" clip-rule="evenodd" d="M29.4824 26.7559C29.4824 24.6698 31.1735 22.9786 33.2597 22.9786H37.037C39.1231 22.9786 40.8143 24.6698 40.8143 26.7559V27.014C41.9884 27.1215 43.1529 27.2621 44.3071 27.4348C46.1379 27.7087 47.4246 29.3014 47.4246 31.107V34.9261C47.4246 36.4511 46.5009 37.888 44.9866 38.3914C41.8928 39.42 38.5846 39.9765 35.1484 39.9765C31.7121 39.9765 28.4038 39.42 25.31 38.3914C23.7958 37.888 22.8721 36.4511 22.8721 34.9261V31.107C22.8721 29.3014 24.1588 27.7087 25.9896 27.4348C27.1437 27.2621 28.3083 27.1215 29.4824 27.014V26.7559ZM38.9256 26.7559V26.8703C37.6762 26.7944 36.4167 26.7559 35.1483 26.7559C33.88 26.7559 32.6205 26.7944 31.371 26.8703V26.7559C31.371 25.7129 32.2166 24.8673 33.2597 24.8673H37.037C38.0801 24.8673 38.9256 25.7129 38.9256 26.7559ZM35.1483 37.1436C35.6699 37.1436 36.0927 36.7208 36.0927 36.1992C36.0927 35.6777 35.6699 35.2549 35.1483 35.2549C34.6268 35.2549 34.204 35.6777 34.204 36.1992C34.204 36.7208 34.6268 37.1436 35.1483 37.1436Z" fill="url(#paint0_linear_245_784)"/>
<path d="M23.8164 43.3131V39.7926C24.0972 39.9466 24.3968 40.0781 24.7142 40.1836C27.9977 41.2753 31.507 41.8652 35.1484 41.8652C38.7897 41.8652 42.299 41.2753 45.5825 40.1836C45.8998 40.0781 46.1994 39.9467 46.4803 39.7926V43.3131C46.4803 45.1412 45.1617 46.7473 43.3034 46.9941C40.6349 47.3484 37.9127 47.5312 35.1483 47.5312C32.3839 47.5312 29.6617 47.3484 26.9933 46.9941C25.135 46.7473 23.8164 45.1412 23.8164 43.3131Z" fill="url(#paint1_linear_245_784)"/>
<defs>
<linearGradient id="paint0_linear_245_784" x1="21.5888" y1="23.379" x2="35.1483" y2="47.5312" gradientUnits="userSpaceOnUse">
<stop stop-color="#41EB9C"/>
<stop offset="1" stop-color="#37903B"/>
</linearGradient>
<linearGradient id="paint1_linear_245_784" x1="21.5888" y1="23.379" x2="35.1483" y2="47.5312" gradientUnits="userSpaceOnUse">
<stop stop-color="#41EB9C"/>
<stop offset="1" stop-color="#37903B"/>
</linearGradient>
</defs>
</svg>
