<svg width="71" height="70" viewBox="0 0 71 70" fill="none" xmlns="http://www.w3.org/2000/svg">
<rect opacity="0.25" x="0.436523" width="69.735" height="69.735" rx="34.8675" fill="url(#paint0_linear_245_773)"/>
<path d="M35.5907 37.9831C39.8001 37.9831 43.3944 38.6504 43.3944 41.3209C43.3944 43.9903 39.8232 44.682 35.5907 44.682C31.3812 44.682 27.787 44.0146 27.787 41.3452C27.787 38.6747 31.3582 37.9831 35.5907 37.9831ZM42.3211 36.375C43.9304 36.3452 45.6605 36.5662 46.2998 36.7231C47.6543 36.9894 48.5451 37.533 48.9142 38.323C49.2262 38.9715 49.2262 39.7239 48.9142 40.3714C48.3496 41.5967 46.5294 41.9901 45.822 42.0917C45.6759 42.1138 45.5583 41.9867 45.5737 41.8398C45.9351 38.4445 43.0603 36.8347 42.3167 36.4645C42.2848 36.448 42.2782 36.4226 42.2815 36.4071C42.2837 36.396 42.2969 36.3784 42.3211 36.375ZM28.6831 36.3728L28.9862 36.3755C29.0104 36.3788 29.0224 36.3965 29.0246 36.4064C29.0279 36.423 29.0213 36.4473 28.9906 36.465C28.2458 36.8351 25.371 38.4449 25.7324 41.8391C25.7478 41.9872 25.6314 42.1131 25.4853 42.0921C24.7778 41.9905 22.9576 41.5972 22.393 40.3718C22.0799 39.7233 22.0799 38.972 22.393 38.3234C22.7621 37.5334 23.6519 36.9898 25.0063 36.7224C25.6468 36.5666 27.3758 36.3457 28.9862 36.3755L28.6831 36.3728ZM35.5907 25.0529C38.4567 25.0529 40.7547 27.3621 40.7547 30.2458C40.7547 33.1285 38.4567 35.4399 35.5907 35.4399C32.7247 35.4399 30.4266 33.1285 30.4266 30.2458C30.4266 27.3621 32.7247 25.0529 35.5907 25.0529ZM42.6012 25.9189C45.3694 25.9189 47.5433 28.5386 46.8029 31.4566C46.3031 33.421 44.4939 34.7259 42.4781 34.6729C42.276 34.6673 42.0772 34.6486 41.885 34.6154C41.7454 34.5911 41.6751 34.4331 41.7542 34.316C42.5232 33.178 42.9615 31.809 42.9615 30.3395C42.9615 28.8059 42.4825 27.3762 41.651 26.204C41.6246 26.1675 41.6048 26.1111 41.6312 26.0692C41.6532 26.0349 41.6938 26.0172 41.7323 26.0084C42.0124 25.9509 42.3002 25.9189 42.6012 25.9189ZM28.7044 25.9188C29.0054 25.9188 29.2932 25.9508 29.5744 26.0083C29.6118 26.0171 29.6535 26.0359 29.6755 26.069C29.7008 26.111 29.6821 26.1674 29.6557 26.2038C28.8242 27.3761 28.3452 28.8058 28.3452 30.3394C28.3452 31.8089 28.7835 33.1779 29.5525 34.3159C29.6316 34.433 29.5612 34.591 29.4217 34.6153C29.2284 34.6496 29.0307 34.6672 28.8285 34.6728C26.8128 34.7258 25.0036 33.4209 24.5038 31.4564C23.7623 28.5385 25.9362 25.9188 28.7044 25.9188Z" fill="url(#paint1_linear_245_773)"/>
<defs>
<linearGradient id="paint0_linear_245_773" x1="0.436523" y1="0" x2="70.1715" y2="69.735" gradientUnits="userSpaceOnUse">
<stop stop-color="#FFDD00"/>
<stop offset="1" stop-color="#FFAE00"/>
</linearGradient>
<linearGradient id="paint1_linear_245_773" x1="35.6532" y1="25.0529" x2="35.6532" y2="44.682" gradientUnits="userSpaceOnUse">
<stop stop-color="#FFA200"/>
<stop offset="1" stop-color="#FF8661"/>
</linearGradient>
</defs>
</svg>
