<svg width="70" height="70" viewBox="0 0 70 70" fill="none" xmlns="http://www.w3.org/2000/svg">
<rect opacity="0.15" width="69.735" height="69.735" rx="34.8675" fill="#007AFF"/>
<path fill-rule="evenodd" clip-rule="evenodd" d="M35.2546 51.6136C34.7184 51.6136 34.1821 51.4807 33.7059 51.2118L33.2266 50.9412C25.6949 46.7048 21.0171 38.7064 21.0171 30.0658V29.8364C21.0171 28.699 21.6341 27.6423 22.6275 27.0807L33.7043 20.851C34.6614 20.3131 35.8495 20.3115 36.8034 20.8494L47.8786 27.0791C48.8752 27.6423 49.4922 28.699 49.4922 29.8364V30.0658C49.4922 38.7064 44.8144 46.7048 37.2827 50.9412L36.805 51.2102C36.3272 51.4791 35.7909 51.6136 35.2546 51.6136Z" fill="#03133D"/>
<mask id="mask0_245_761" style="mask-type:luminance" maskUnits="userSpaceOnUse" x="21" y="20" width="29" height="32">
<path fill-rule="evenodd" clip-rule="evenodd" d="M35.2546 51.6136C34.7184 51.6136 34.1821 51.4807 33.7059 51.2118L33.2266 50.9412C25.6949 46.7048 21.0171 38.7064 21.0171 30.0658V29.8364C21.0171 28.699 21.6341 27.6423 22.6275 27.0807L33.7043 20.851C34.6614 20.3131 35.8495 20.3115 36.8034 20.8494L47.8786 27.0791C48.8752 27.6423 49.4922 28.699 49.4922 29.8364V30.0658C49.4922 38.7064 44.8144 46.7048 37.2827 50.9412L36.805 51.2102C36.3272 51.4791 35.7909 51.6136 35.2546 51.6136Z" fill="white"/>
</mask>
<g mask="url(#mask0_245_761)">
<rect x="16.271" y="17.0463" width="37.9668" height="37.9668" rx="2.47096" fill="#007AFF"/>
</g>
<path fill-rule="evenodd" clip-rule="evenodd" d="M37.9714 34.5552L35.0808 38.3519C34.9619 38.5082 34.7777 38.6006 34.5816 38.6019H34.5771C34.3829 38.6019 34.1994 38.512 34.0791 38.3589L32.5402 36.3928C32.3251 36.1182 32.3732 35.7202 32.6484 35.505C32.9231 35.2893 33.3217 35.3374 33.5368 35.6132L34.5702 36.9332L36.9646 33.7889C37.176 33.5111 37.5727 33.4567 37.8518 33.6687C38.1296 33.8807 38.1834 34.2774 37.9714 34.5552ZM35.2536 29.743C31.7587 29.743 28.9258 32.5759 28.9258 36.0708C28.9258 39.565 31.7587 42.3986 35.2536 42.3986C38.7484 42.3986 41.5814 39.565 41.5814 36.0708C41.5814 32.5759 38.7484 29.743 35.2536 29.743Z" fill="#231F20"/>
<mask id="mask1_245_761" style="mask-type:luminance" maskUnits="userSpaceOnUse" x="28" y="29" width="14" height="14">
<path fill-rule="evenodd" clip-rule="evenodd" d="M37.9714 34.5552L35.0808 38.3519C34.9619 38.5082 34.7777 38.6006 34.5816 38.6019H34.5771C34.3829 38.6019 34.1994 38.512 34.0791 38.3589L32.5402 36.3928C32.3251 36.1182 32.3732 35.7202 32.6484 35.505C32.9231 35.2893 33.3217 35.3374 33.5368 35.6132L34.5702 36.9332L36.9646 33.7889C37.176 33.5111 37.5727 33.4567 37.8518 33.6687C38.1296 33.8807 38.1834 34.2774 37.9714 34.5552ZM35.2536 29.743C31.7587 29.743 28.9258 32.5759 28.9258 36.0708C28.9258 39.565 31.7587 42.3986 35.2536 42.3986C38.7484 42.3986 41.5814 39.565 41.5814 36.0708C41.5814 32.5759 38.7484 29.743 35.2536 29.743Z" fill="white"/>
</mask>
<g mask="url(#mask1_245_761)">
<rect x="27.6597" y="28.4771" width="15.1867" height="15.1867" fill="white"/>
</g>
</svg>
